<svg id="katman_1" data-name="katman 1" xmlns="http://www.w3.org/2000/svg" viewBox="0 0 428.59 87.47"><defs><style>.cls-1{fill:#fff;}</style></defs><title>5</title><path class="cls-1" d="M47.38,61.93c-1.75,2.47-4.47,3.7-8.18,3.7A6.33,6.33,0,0,1,34.46,64a13.34,13.34,0,0,1-2.74-5.48l-2.95-9A12.34,12.34,0,0,0,26,44.33a6.15,6.15,0,0,0-4.42-1.54q-.93,0-3.42.15v22A33,33,0,0,1,12,65.4a33.12,33.12,0,0,1-6.14-.46V12.23A33.12,33.12,0,0,1,12,11.77a33,33,0,0,1,6.13.46V32.6l2-.07a3.18,3.18,0,0,0,2-.51,7,7,0,0,0,1.48-2.12L31,16.09a9.08,9.08,0,0,1,2.47-3.36,7,7,0,0,1,4.09-1q3.09,0,7.18.38l.69.85L36,30.75a16.71,16.71,0,0,1-4.33,5.63,9.5,9.5,0,0,1,5.46,2.94,17.85,17.85,0,0,1,3,5.79l3.18,9.56c.41,1.19.72,2.06.92,2.63a19.87,19.87,0,0,0,1.55,2.85A13.44,13.44,0,0,0,47.38,61.93Z"/><path class="cls-1" d="M85.27,59.38a13,13,0,0,1-1.47,3.47,8.66,8.66,0,0,1-2.23,2.7,10.15,10.15,0,0,1-8.34-4.09,15.75,15.75,0,0,1-10.88,4.63,13.29,13.29,0,0,1-5.25-1,11.2,11.2,0,0,1-3.78-2.59A10.49,10.49,0,0,1,51,58.8a12.71,12.71,0,0,1-.77-4.43,13.34,13.34,0,0,1,1.19-5.83,11.73,11.73,0,0,1,3.28-4.17,14.74,14.74,0,0,1,4.86-2.51A20.52,20.52,0,0,1,65.52,41c1.18,0,2.22,0,3.12,0s1.69.07,2.35.12V39.69c0-3.28-1.67-4.93-5-4.93q-3.24,0-11.35,2.55-2.31-2.7-2.93-8.41c1.24-.46,2.61-.9,4.13-1.31s3.07-.77,4.67-1.08,3.16-.55,4.71-.74a36.22,36.22,0,0,1,4.16-.27,17.44,17.44,0,0,1,5.21.78A12.51,12.51,0,0,1,79,28.63a11.18,11.18,0,0,1,3,4.09,14.51,14.51,0,0,1,1.12,6V54.37Q83.11,57.91,85.27,59.38ZM62,53.59c0,2.42,1.38,3.63,4.16,3.63,1.44,0,3.06-.74,4.86-2.24V48.81l-2.58-.12-1.58,0Q62,48.66,62,53.59Z"/><path class="cls-1" d="M89.82,32a14,14,0,0,1,1.47-3.44,9.45,9.45,0,0,1,2.16-2.74,10.92,10.92,0,0,1,9.88,7q2.92-6.93,9.64-6.94a27.2,27.2,0,0,1,5.1.62,24.21,24.21,0,0,1-.81,5.67,20.38,20.38,0,0,1-2.2,5.59,19.83,19.83,0,0,0-3.94-.77q-3.86,0-6.33,3.94v24a33.66,33.66,0,0,1-6,.46,34.9,34.9,0,0,1-6-.46V40Q92.76,34.22,89.82,32Z"/><path class="cls-1" d="M122.31,54.6l9.11-12.2a78.45,78.45,0,0,1,6.25-7.25l-.24-.39a89.3,89.3,0,0,1-9.56.62h-6a16.1,16.1,0,0,1-.46-3.93,22.51,22.51,0,0,1,.69-5H149a24.33,24.33,0,0,1,1.62,6.64,6,6,0,0,1-1.16,3.55L140,49.2a72,72,0,0,1-5.79,6.94l.23.39a45.59,45.59,0,0,1,6.1-.47h2.7a16.18,16.18,0,0,0,7.18-1.31,13.71,13.71,0,0,1,1.23,4.86q0,5.33-6.4,5.33H121.92a19.14,19.14,0,0,1-1.31-6A6.83,6.83,0,0,1,122.31,54.6Z"/><path class="cls-1" d="M177.72,49H156a20.92,20.92,0,0,1-.47-4.82,20.92,20.92,0,0,1,.47-4.82h21.76a21,21,0,0,1,.46,4.82A21,21,0,0,1,177.72,49Z"/><path class="cls-1" d="M199.86,35.3V64.94a33.66,33.66,0,0,1-6,.46,36.37,36.37,0,0,1-6.13-.46V39.39q0-4.47-3.63-4.47H183a15.23,15.23,0,0,1-.46-4.13,17,17,0,0,1,.46-4.28c2.68-.26,4.94-.39,6.8-.39h1.69a8,8,0,0,1,6.14,2.47A9.57,9.57,0,0,1,199.86,35.3Z"/><path class="cls-1" d="M256.12,32.68,256,27V12.23a33.32,33.32,0,0,1,6.17-.46,32.07,32.07,0,0,1,6.1.46V64.94a41.14,41.14,0,0,1-12.27,0V48.58l.08-5.71-3.88.07h-9l-3.88-.07.08,5.71V64.94a41.14,41.14,0,0,1-12.27,0V12.23a41.14,41.14,0,0,1,12.27,0V27l-.08,5.71,3.88-.08h9Z"/><path class="cls-1" d="M311.6,59.38a12.93,12.93,0,0,1-1.46,3.47,8.67,8.67,0,0,1-2.24,2.7,10.16,10.16,0,0,1-8.34-4.09,15.75,15.75,0,0,1-10.88,4.63,13.21,13.21,0,0,1-5.24-1,11.15,11.15,0,0,1-3.79-2.59,10.49,10.49,0,0,1-2.31-3.74,12.71,12.71,0,0,1-.77-4.43,13.34,13.34,0,0,1,1.19-5.83A11.73,11.73,0,0,1,281,44.37a14.74,14.74,0,0,1,4.86-2.51,20.52,20.52,0,0,1,6-.85c1.18,0,2.22,0,3.12,0s1.69.07,2.36.12V39.69c0-3.28-1.68-4.93-5-4.93q-3.24,0-11.34,2.55-2.33-2.7-2.94-8.41c1.24-.46,2.61-.9,4.13-1.31s3.08-.77,4.67-1.08,3.17-.55,4.71-.74a36.24,36.24,0,0,1,4.17-.27,17.37,17.37,0,0,1,5.2.78,12.51,12.51,0,0,1,4.4,2.35,11.07,11.07,0,0,1,3,4.09,14.51,14.51,0,0,1,1.12,6V54.37Q309.44,57.91,311.6,59.38Zm-23.3-5.79q0,3.63,4.16,3.63c1.44,0,3.06-.74,4.87-2.24V48.81l-2.59-.12-1.58,0Q288.3,48.66,288.3,53.59Z"/><path class="cls-1" d="M315.38,62.31a13.24,13.24,0,0,1,1-4.39,12.24,12.24,0,0,1,2.28-3.79q6.18,3.24,10.73,3.25a6.23,6.23,0,0,0,3.32-.74,2.23,2.23,0,0,0,1.15-2q0-2.31-3.55-3.47l-4.24-1.62Q316.47,46,316.46,38a11.56,11.56,0,0,1,4.05-9.3q4-3.43,10.92-3.44a32.49,32.49,0,0,1,7.49,1,31.29,31.29,0,0,1,6.71,2.27,10.89,10.89,0,0,1-.85,4.75,7.89,7.89,0,0,1-2.47,3.66Q335.83,34,331.51,34a3.47,3.47,0,0,0-2.35.7,2.22,2.22,0,0,0-.81,1.77c0,1.24,1,2.21,2.93,2.93l4.78,1.7q10.28,3.63,10.27,12.43a11.13,11.13,0,0,1-4.25,9.18q-4.24,3.39-12.11,3.39A29.26,29.26,0,0,1,315.38,62.31Z"/><path class="cls-1" d="M382.68,49.58H362.61a8.66,8.66,0,0,0,1.77,5.35q1.61,1.91,5.3,1.9a20.48,20.48,0,0,0,4.27-.52,39.33,39.33,0,0,0,5.57-1.71,12.3,12.3,0,0,1,3.15,7.1q-6.17,4.39-15.12,4.39a19,19,0,0,1-8.14-1.54,13.82,13.82,0,0,1-5.33-4.32,17.26,17.26,0,0,1-2.89-6.56,37.43,37.43,0,0,1-.85-8.26,29.24,29.24,0,0,1,1-8,18.23,18.23,0,0,1,3.17-6.37,14.65,14.65,0,0,1,5.4-4.24,17.81,17.81,0,0,1,7.68-1.55,17.12,17.12,0,0,1,6.67,1.24,14.81,14.81,0,0,1,5.06,3.39,15,15,0,0,1,3.2,5.17,18.86,18.86,0,0,1,1.12,6.56A27.49,27.49,0,0,1,382.68,49.58Zm-20.15-8.33h10.11V40.4a8.2,8.2,0,0,0-1.26-4.71,4.29,4.29,0,0,0-3.79-1.85A4.11,4.11,0,0,0,364,35.57Q362.77,37.31,362.53,41.25Z"/><path class="cls-1" d="M424.19,39.47V55.29c0,3.4.62,5.94,1.85,7.64a10.14,10.14,0,0,1-7,2.62c-2.68,0-4.5-.61-5.48-1.85s-1.47-3.11-1.47-5.63V41.63a8.25,8.25,0,0,0-.69-3.86,2.82,2.82,0,0,0-2.7-1.23,6.87,6.87,0,0,0-2.62.62,10.84,10.84,0,0,0-3,2V64.94c-.88.15-1.83.27-2.86.35s-2.08.11-3.16.11-2.14,0-3.17-.11-2-.2-2.85-.35V26.43l.54-.54h4.55q4.71,0,6.33,4.63,5.4-4.78,10.73-4.78c3.59,0,6.33,1.24,8.21,3.74S424.19,35.3,424.19,39.47Z"/></svg>