<svg width="347" height="42" viewBox="0 0 347 42" fill="none" xmlns="http://www.w3.org/2000/svg">
<path d="M0.12 10.416V8.976H8.952L22.776 38.352L21.192 42H14.952L0.12 10.416ZM27.24 28.128H27.048L23.832 35.904L19.704 27.072L27.24 8.976H36.36V42H27.24V28.128ZM0.12 15.168L8.952 33.984V42H0.12V15.168ZM42.5888 8.976H52.1888V42H42.5888V8.976ZM54.2048 8.976H66.3968V16.32H54.2048V8.976ZM54.2048 21.648H64.1407V28.992H54.2048V21.648ZM54.2048 34.656H66.3968V42H54.2048V34.656ZM72.1669 8.976H81.7669V42H72.1669V8.976ZM90.6949 29.28H83.7829V21.6H90.6949V8.976H100.295V42H90.6949V29.28ZM106.526 10.416V8.976H115.358L129.182 38.352L127.598 42H121.358L106.526 10.416ZM133.646 28.128H133.454L130.238 35.904L126.11 27.072L133.646 8.976H142.766V42H133.646V28.128ZM106.526 15.168L115.358 33.984V42H106.526V15.168ZM148.995 8.976H158.595V42H148.995V8.976ZM160.611 8.976H172.803V16.32H160.611V8.976ZM160.611 21.648H170.547V28.992H160.611V21.648ZM160.611 34.656H172.803V42H160.611V34.656ZM175.885 8.976H202.909V16.656H175.885V8.976ZM184.573 18.576H194.173V42H184.573V18.576ZM218.229 8.976H227.829V42H218.229V8.976ZM229.845 8.976H241.077V16.32H229.845V8.976ZM229.845 22.608H239.301V29.952H229.845V22.608ZM251.217 8.976H252.033L255.825 22.128L250.305 42H240.705L251.217 8.976ZM262.017 36.144H254.001L256.017 28.752H259.857L254.193 8.976H262.977L273.489 42H263.697L262.017 36.144ZM271.838 8.976H298.862V16.656H271.838V8.976ZM280.526 18.576H290.126V42H280.526V18.576ZM302.417 8.976H312.017V42H302.417V8.976ZM303.473 0.239997H310.817V5.952H303.473V0.239997ZM318.261 8.976H327.861V42H318.261V8.976ZM336.789 29.28H329.877V21.6H336.789V8.976H346.389V42H336.789V29.28Z" fill="black"/>
</svg>
