<svg width="84" height="43" viewBox="0 0 84 43" fill="none" xmlns="http://www.w3.org/2000/svg">
<path d="M0.9 2.52V0.719999H11.94L29.22 37.44L27.24 42H19.44L0.9 2.52ZM34.8 24.66H34.56L30.54 34.38L25.38 23.34L34.8 0.719999H46.2V42H34.8V24.66ZM0.9 8.46L11.94 31.98V42H0.9V8.46ZM53.9859 0.719999H65.9859V42H53.9859V0.719999ZM68.5059 0.719999H82.5459V9.9H68.5059V0.719999ZM68.5059 17.76H80.3259V26.94H68.5059V17.76Z" fill="black"/>
<path d="M0.9 2.52H0.2V2.67618L0.266387 2.81754L0.9 2.52ZM0.9 0.719999V0.0199986H0.2V0.719999H0.9ZM11.94 0.719999L12.5734 0.421941L12.3842 0.0199986H11.94V0.719999ZM29.22 37.44L29.8621 37.7188L29.9882 37.4284L29.8534 37.1419L29.22 37.44ZM27.24 42V42.7H27.6992L27.8821 42.2788L27.24 42ZM19.44 42L18.8064 42.2975L18.9954 42.7H19.44V42ZM34.8 24.66H35.5V23.96H34.8V24.66ZM34.56 24.66V23.96H34.092L33.9131 24.3925L34.56 24.66ZM30.54 34.38L29.9058 34.6764L30.5791 36.1169L31.1869 34.6475L30.54 34.38ZM25.38 23.34L24.7338 23.0709L24.6149 23.3563L24.7458 23.6364L25.38 23.34ZM34.8 0.719999V0.0199986H34.3332L34.1538 0.450889L34.8 0.719999ZM46.2 0.719999H46.9V0.0199986H46.2V0.719999ZM46.2 42V42.7H46.9V42H46.2ZM34.8 42H34.1V42.7H34.8V42ZM0.9 8.46L1.53367 8.16256L0.2 8.46H0.9ZM11.94 31.98H12.64V31.8239L12.5737 31.6826L11.94 31.98ZM11.94 42V42.7H12.64V42H11.94ZM0.9 42H0.2V42.7H0.9V42ZM1.6 2.52V0.719999H0.2V2.52H1.6ZM0.9 1.42H11.94V0.0199986H0.9V1.42ZM11.3066 1.01806L28.5866 37.7381L29.8534 37.1419L12.5734 0.421941L11.3066 1.01806ZM28.5779 37.1612L26.5979 41.7212L27.8821 42.2788L29.8621 37.7188L28.5779 37.1612ZM27.24 41.3H19.44V42.7H27.24V41.3ZM20.0736 41.7025L1.53361 2.22245L0.266387 2.81754L18.8064 42.2975L20.0736 41.7025ZM34.8 23.96H34.56V25.36H34.8V23.96ZM33.9131 24.3925L29.8931 34.1125L31.1869 34.6475L35.2069 24.9275L33.9131 24.3925ZM31.1742 34.0836L26.0142 23.0436L24.7458 23.6364L29.9058 34.6764L31.1742 34.0836ZM26.0262 23.6091L35.4462 0.989108L34.1538 0.450889L24.7338 23.0709L26.0262 23.6091ZM34.8 1.42H46.2V0.0199986H34.8V1.42ZM45.5 0.719999V42H46.9V0.719999H45.5ZM46.2 41.3H34.8V42.7H46.2V41.3ZM35.5 42V24.66H34.1V42H35.5ZM0.266334 8.75743L11.3063 32.2774L12.5737 31.6826L1.53367 8.16256L0.266334 8.75743ZM11.24 31.98V42H12.64V31.98H11.24ZM11.94 41.3H0.9V42.7H11.94V41.3ZM1.6 42V8.46H0.2V42H1.6ZM53.9859 0.719999V0.0199986H53.2859V0.719999H53.9859ZM65.9859 0.719999H66.6859V0.0199986H65.9859V0.719999ZM65.9859 42V42.7H66.6859V42H65.9859ZM53.9859 42H53.2859V42.7H53.9859V42ZM68.5059 0.719999V0.0199986H67.8059V0.719999H68.5059ZM82.5459 0.719999H83.2459V0.0199986H82.5459V0.719999ZM82.5459 9.9V10.6H83.2459V9.9H82.5459ZM68.5059 9.9H67.8059V10.6H68.5059V9.9ZM68.5059 17.76V17.06H67.8059V17.76H68.5059ZM80.3259 17.76H81.0259V17.06H80.3259V17.76ZM80.3259 26.94V27.64H81.0259V26.94H80.3259ZM68.5059 26.94H67.8059V27.64H68.5059V26.94ZM53.9859 1.42H65.9859V0.0199986H53.9859V1.42ZM65.2859 0.719999V42H66.6859V0.719999H65.2859ZM65.9859 41.3H53.9859V42.7H65.9859V41.3ZM54.6859 42V0.719999H53.2859V42H54.6859ZM68.5059 1.42H82.5459V0.0199986H68.5059V1.42ZM81.8459 0.719999V9.9H83.2459V0.719999H81.8459ZM82.5459 9.2H68.5059V10.6H82.5459V9.2ZM69.2059 9.9V0.719999H67.8059V9.9H69.2059ZM68.5059 18.46H80.3259V17.06H68.5059V18.46ZM79.6259 17.76V26.94H81.0259V17.76H79.6259ZM80.3259 26.24H68.5059V27.64H80.3259V26.24ZM69.2059 26.94V17.76H67.8059V26.94H69.2059Z" fill="white"/>
</svg>
